<svg xmlns="http://www.w3.org/2000/svg" enable-background="new 0 0 512 512" viewBox="0 0 512 512" id="tic-tac-toe"><g><path fill="#f2f2f2" d="M466.4,476.1H45.6c-6.7,0-12.1-5.4-12.1-12.1V48c0-6.7,5.4-12.1,12.1-12.1h420.9c6.7,0,12.1,5.4,12.1,12.1V464
		C478.5,470.6,473.1,476.1,466.4,476.1z"></path><path fill="#f15a24" d="M110.4 84c-18.2 0-33 14.8-33 33s14.8 33 33 33c18.2 0 33-14.8 33-33S128.6 84 110.4 84zM110.4 131.2c-7.8 0-14.2-6.3-14.2-14.2s6.3-14.2 14.2-14.2c7.8 0 14.2 6.3 14.2 14.2S118.2 131.2 110.4 131.2zM110.4 222.3c-18.2 0-33 14.8-33 33s14.8 33 33 33c18.2 0 33-14.8 33-33S128.6 222.3 110.4 222.3zM110.4 269.5c-7.8 0-14.2-6.3-14.2-14.2s6.3-14.2 14.2-14.2c7.8 0 14.2 6.3 14.2 14.2S118.2 269.5 110.4 269.5zM256 84c-18.2 0-33 14.8-33 33s14.8 33 33 33c18.2 0 33-14.8 33-33S274.2 84 256 84zM256 131.2c-7.8 0-14.2-6.3-14.2-14.2s6.3-14.2 14.2-14.2c7.8 0 14.2 6.3 14.2 14.2S263.8 131.2 256 131.2zM397.8 222.3c-18.2 0-33 14.8-33 33s14.8 33 33 33c18.2 0 33-14.8 33-33S416 222.3 397.8 222.3zM397.8 269.5c-7.8 0-14.2-6.3-14.2-14.2s6.3-14.2 14.2-14.2c7.8 0 14.2 6.3 14.2 14.2S405.6 269.5 397.8 269.5z"></path><path fill="#29abe2" d="M271 230.5l-15 15-15-15c-2.7-2.7-7.1-2.7-9.8 0l0 0c-2.7 2.7-2.7 7.1 0 9.8l15 15-15 15c-2.7 2.7-2.7 7.1 0 9.8l0 0c2.7 2.7 7.1 2.7 9.8 0l15-15 15 15c2.7 2.7 7.1 2.7 9.8 0l0 0c2.7-2.7 2.7-7.1 0-9.8l-15-15 15-15c2.7-2.7 2.7-7.1 0-9.8h0C278.1 227.8 273.7 227.8 271 230.5zM412.7 372.5l-15 15-15-15c-2.7-2.7-7.1-2.7-9.8 0l0 0c-2.7 2.7-2.7 7.1 0 9.8l15 15-15 15c-2.7 2.7-2.7 7.1 0 9.8l0 0c2.7 2.7 7.1 2.7 9.8 0l15-15 15 15c2.7 2.7 7.1 2.7 9.8 0l0 0c2.7-2.7 2.7-7.1 0-9.8l-15-15 15-15c2.7-2.7 2.7-7.1 0-9.8l0 0C419.8 369.8 415.4 369.8 412.7 372.5zM125.3 372.5l-15 15-15-15c-2.7-2.7-7.1-2.7-9.8 0l0 0c-2.7 2.7-2.7 7.1 0 9.8l15 15-15 15c-2.7 2.7-2.7 7.1 0 9.8h0c2.7 2.7 7.1 2.7 9.8 0l15-15 15 15c2.7 2.7 7.1 2.7 9.8 0l0 0c2.7-2.7 2.7-7.1 0-9.8l-15-15 15-15c2.7-2.7 2.7-7.1 0-9.8h0C132.4 369.8 128 369.8 125.3 372.5z"></path><path fill="#1b1464" d="M450.2,201.3v-28.6h-111v-111h-28.6v111H201.3v-111h-28.6v111h-111v28.6h111v109.3h-111v28.6h111v111h28.6
		v-111h109.3v111h28.6v-111h111v-28.6h-111V201.3H450.2z M310.7,310.7H201.3V201.3h109.3V310.7z"></path></g></svg>